<?xml version="1.0" standalone="no"?>
<!DOCTYPE svg PUBLIC "-//W3C//DTD SVG 20010904//EN"
 "http://www.w3.org/TR/2001/REC-SVG-20010904/DTD/svg10.dtd">
<svg version="1.0" xmlns="http://www.w3.org/2000/svg"
 width="500.000000pt" height="500.000000pt" viewBox="0 0 500.000000 500.000000"
 preserveAspectRatio="xMidYMid meet">

<g transform="translate(0.000000,500.000000) scale(0.100000,-0.100000)"
fill="#000000" stroke="none">
<path d="M0 2500 l0 -2500 2500 0 2500 0 0 2500 0 2500 -2500 0 -2500 0 0
-2500z m2661 2294 c68 -35 77 -116 19 -165 -26 -22 -29 -30 -21 -50 5 -13 18
-48 30 -76 l21 -53 -58 0 -57 0 -25 73 c-20 57 -29 72 -45 72 -18 0 -21 -8
-25 -70 l-5 -70 -49 3 c-27 1 -51 4 -54 6 -2 3 -1 84 3 182 l8 177 115 -7 c69
-4 126 -13 143 -22z m-338 -96 c36 -150 36 -198 -2 -235 -53 -53 -175 -71
-224 -33 -30 24 -49 72 -81 203 l-24 98 22 8 c56 21 84 23 89 4 3 -10 15 -61
27 -113 12 -52 29 -105 36 -117 27 -44 94 -20 94 33 0 13 -11 72 -25 131 -14
58 -23 108 -21 111 4 3 47 15 76 21 3 1 18 -50 33 -111z m642 47 c66 -20 121
-38 123 -40 2 -2 -3 -19 -12 -38 l-14 -35 -78 24 c-60 18 -80 21 -86 11 -18
-28 -7 -46 35 -60 38 -13 42 -17 40 -46 0 -18 -4 -35 -7 -38 -3 -3 -26 0 -51
7 -48 13 -61 9 -67 -24 -2 -16 11 -24 77 -46 44 -15 79 -30 78 -33 -2 -4 -3
-15 -3 -24 -1 -46 -12 -46 -149 -3 -80 25 -131 46 -131 54 0 7 4 26 9 42 6 16
28 89 51 162 27 86 46 132 53 129 7 -2 66 -21 132 -42z m-1039 -76 c17 -34 17
-34 -38 -65 -16 -8 -28 -19 -28 -25 0 -6 27 -59 60 -118 33 -59 60 -113 60
-118 0 -15 -70 -55 -86 -49 -7 2 -37 51 -68 108 -78 145 -68 134 -109 109 -45
-28 -54 -27 -72 8 -12 23 -12 32 -3 38 30 19 254 142 260 143 4 0 15 -14 24
-31z m1384 -85 c22 -15 40 -31 40 -37 0 -13 -180 -297 -189 -297 -3 0 -23 12
-44 26 -28 18 -37 30 -32 42 7 19 178 292 183 292 1 0 20 -12 42 -26z m-1667
-183 c101 -103 124 -145 106 -198 -13 -42 -61 -99 -100 -119 -42 -21 -100 -18
-136 9 -16 12 -64 58 -106 103 l-76 81 37 36 38 37 89 -90 c69 -69 96 -90 117
-90 27 0 58 31 58 59 0 7 -41 56 -92 107 l-92 94 29 30 c16 17 32 30 35 30 4
0 45 -40 93 -89z m1886 20 c44 -31 72 -76 79 -123 5 -40 4 -41 -19 -35 -13 4
-32 7 -41 7 -11 0 -18 8 -18 19 0 24 -46 81 -65 81 -29 0 -25 -23 11 -83 51
-84 53 -136 6 -178 -39 -35 -85 -38 -141 -9 -65 33 -121 114 -121 176 0 25 2
26 37 19 50 -9 53 -12 53 -44 0 -46 75 -103 95 -71 3 6 -10 36 -29 68 -45 73
-52 107 -29 152 31 61 113 70 182 21z m-2219 -241 c28 -22 31 -11 -31 -117
-24 -42 -24 -42 -4 -57 30 -23 38 -20 63 24 25 45 32 47 68 24 l24 -17 -25
-43 c-14 -23 -25 -45 -25 -47 0 -3 24 -20 53 -37 28 -18 54 -34 56 -36 6 -5
-50 -95 -57 -91 -30 16 -289 172 -296 178 -8 7 20 59 101 187 19 28 37 52 41
52 4 0 18 -9 32 -20z m2500 -100 c11 -21 20 -44 20 -49 0 -6 -24 -23 -52 -37
-29 -15 -54 -28 -56 -29 -5 -4 37 -85 44 -85 2 0 27 11 54 25 27 14 53 25 58
25 8 0 56 -90 50 -95 -8 -8 -309 -155 -316 -155 -4 0 -18 20 -30 45 l-22 45
60 30 c33 17 60 35 60 40 0 16 -33 80 -42 80 -4 0 -33 -12 -64 -27 l-56 -28
-19 24 c-19 23 -35 68 -28 75 8 7 304 155 311 155 4 1 17 -17 28 -39z m-884
-220 c590 -206 546 -189 542 -214 l-3 -21 -950 0 -950 0 0 24 c0 22 28 34 460
192 253 93 463 168 466 169 3 0 199 -68 435 -150z m-1809 -114 c3 -3 -3 -39
-13 -80 -10 -42 -15 -78 -13 -81 3 -2 16 -6 29 -7 21 -3 26 3 37 45 14 48 20
52 61 41 22 -6 23 -10 16 -60 -3 -30 -2 -54 2 -54 5 0 18 -3 30 -6 19 -5 22 2
39 81 l18 86 31 -7 c17 -3 34 -9 38 -13 6 -5 -12 -98 -47 -248 -3 -13 -13 -23
-23 -23 -23 0 -324 69 -331 76 -4 4 47 252 55 266 4 6 62 -7 71 -16z m2878
-151 c16 -74 26 -137 24 -139 -2 -2 -20 -6 -39 -8 l-34 -3 -13 60 c-25 113
-22 107 -46 99 -34 -10 -37 -16 -26 -63 11 -50 3 -61 -42 -61 -24 0 -28 5 -36
48 -8 45 -10 47 -38 44 -17 -2 -31 -4 -32 -5 -1 -1 5 -31 12 -67 20 -90 19
-110 -3 -110 -10 0 -22 -3 -26 -7 -4 -5 68 -12 161 -18 l168 -10 -3 -100 c-1
-55 -7 -117 -13 -137 -11 -44 -51 -78 -91 -78 -39 0 -85 25 -93 50 -8 25 -9
25 -89 -5 -37 -14 -71 -25 -76 -25 -13 0 -13 76 0 99 6 11 35 26 74 36 61 17
84 35 70 56 -3 5 -31 9 -62 9 -79 0 -85 6 -74 67 4 27 5 56 1 64 -9 14 -59
262 -55 266 4 4 319 71 337 72 13 1 22 -27 44 -134z m-1917 -499 c1 -271 -1
-383 -9 -392 -9 -11 -44 -14 -144 -14 -74 0 -140 3 -149 6 -14 5 -16 49 -16
388 0 211 3 386 7 390 4 3 75 5 157 4 l151 -3 3 -379z m1180 372 c9 -9 12
-107 12 -379 0 -321 -2 -370 -16 -383 -23 -23 -275 -23 -298 0 -14 13 -16 62
-16 383 0 272 3 370 12 379 8 8 57 12 153 12 96 0 145 -4 153 -12z m-734 -24
c10 -4 16 -18 16 -40 0 -29 5 -36 35 -48 19 -8 44 -30 55 -48 24 -39 27 -96 5
-104 -21 -8 -45 14 -45 41 0 57 -103 83 -141 36 -10 -13 -19 -38 -19 -57 0
-37 21 -56 122 -113 81 -45 98 -70 98 -143 0 -55 -3 -63 -34 -94 -19 -19 -43
-34 -54 -34 -18 0 -21 -7 -24 -52 -3 -49 -5 -53 -28 -53 -23 0 -25 4 -28 51
-3 48 -5 51 -38 63 -45 16 -75 64 -72 111 2 27 8 36 25 38 18 3 24 -4 33 -36
13 -50 33 -67 81 -67 43 0 74 24 84 65 9 37 -20 69 -114 123 -89 52 -111 81
-111 149 0 56 29 103 74 119 31 11 36 18 36 44 0 17 5 36 12 43 14 14 12 14
32 6z m-1190 -60 c3 -9 6 -33 6 -54 l0 -38 -69 -4 c-39 -2 -72 -6 -75 -9 -4
-3 -3 -27 0 -53 l7 -47 67 7 67 6 7 -32 c15 -78 16 -78 -86 -84 -51 -3 -133
-7 -183 -8 l-90 -3 -3 51 -3 51 38 7 c21 3 50 6 66 6 26 0 27 2 27 50 l0 49
-67 3 -68 3 0 50 0 50 120 5 c234 11 232 11 239 -6z m2489 -390 c140 -47 167
-59 162 -73 -4 -9 -24 -68 -46 -130 -22 -63 -41 -116 -43 -118 -7 -7 -66 20
-66 31 0 7 9 40 21 74 23 70 20 95 -13 90 -14 -2 -25 -15 -35 -42 -17 -51 -16
-50 -56 -37 l-35 12 16 49 c17 55 17 56 -18 65 -24 6 -27 2 -51 -72 -24 -74
-27 -78 -54 -76 -51 4 -52 14 -4 153 24 71 46 130 49 130 3 0 81 -25 173 -56z
m-2728 -53 l16 -49 131 44 c72 24 134 41 138 39 9 -5 35 -94 29 -99 -2 -2 -61
-22 -131 -45 -75 -25 -128 -48 -128 -55 0 -7 5 -28 11 -45 13 -36 7 -46 -32
-56 -27 -7 -27 -5 -73 132 -25 76 -46 143 -46 150 0 9 38 29 62 32 3 1 14 -21
23 -48z m2233 -418 l3 -93 -821 0 -820 0 0 88 c0 49 3 92 7 95 3 4 371 6 817
5 l811 -3 3 -92z m120 -172 c11 -6 14 -42 13 -157 -1 -81 -4 -151 -7 -154 -3
-3 -38 -7 -77 -10 l-72 -5 -400 -692 c-220 -381 -402 -693 -405 -693 -4 0
-186 312 -406 693 l-400 692 -54 3 c-30 2 -60 8 -67 14 -18 14 -18 289 -1 306
14 14 1854 17 1876 3z"/>
<path d="M2510 4705 c0 -34 1 -35 40 -35 44 0 65 22 49 52 -7 13 -22 18 -49
18 -39 0 -40 -1 -40 -35z"/>
<path d="M3880 3206 c0 -48 17 -64 51 -46 14 8 19 21 19 50 0 39 -1 40 -35 40
-35 0 -35 0 -35 -44z"/>
<path d="M2042 1972 c152 -268 453 -782 458 -782 6 0 480 824 480 834 0 3
-219 6 -486 6 l-485 0 33 -58z"/>
</g>
</svg>
